<?xml version="1.0" encoding="UTF-8"?>
<svg id="Layer_1" data-name="Layer 1" xmlns="http://www.w3.org/2000/svg" viewBox="0 0 425.85 424.62">
  <defs>
    <style>
      .cls-1 {
        fill: #f99c1c;
        fill-rule: evenodd;
        stroke-width: 0px;
      }
    </style>
  </defs>
  <path class="cls-1" d="m63.98,60.17C98.74,26.13,145.11,3.9,196.61,0h32.64c24.57,1.87,47.98,7.91,69.52,17.41h-85.84v31.31h136.29c4.92,4.1,9.66,8.42,14.19,12.95-101.1,0-198.34-1.5-299.43-1.5h0Zm297.89,304.28c-34.76,34.04-81.13,56.26-132.62,60.17h-32.64c-24.57-1.87-47.98-7.91-69.52-17.41h85.84v-31.31H76.63c-4.92-4.1-9.66-8.43-14.19-12.95,101.1,0,198.34,1.5,299.43,1.5h0Zm-325.3-32.81c-4.86-7.16-9.3-14.64-13.27-22.39h189.63v-26.82h201.09c-6.33,18.15-15.04,35.18-25.77,50.72-118.49,0-233.18-1.5-351.68-1.5h0Zm176.36-85.54v-31.31H.01v-1.96s-.01-.52-.01-.52v-.62c.04-13.03,1.25-25.8,3.54-38.18h209.39v-26.82h202.61c3.33,10.29,5.9,20.93,7.64,31.84h-210.25v31.31h212.91v1.96s.01.52.01.52v.62c-.04,13.03-1.25,25.8-3.54,38.18h-209.39v26.82H10.32c-3.33-10.29-5.9-20.92-7.64-31.84h210.25Zm176.36-153.12c4.86,7.16,9.3,14.64,13.27,22.39h-189.63v26.82H11.83c6.33-18.15,15.04-35.18,25.77-50.72,118.49,0,233.18,1.5,351.68,1.5Z"/>
</svg>