<?xml version="1.0" encoding="UTF-8"?>
<svg id="Layer_1" data-name="Layer 1" xmlns="http://www.w3.org/2000/svg" viewBox="0 0 886.55 264.64">
  <defs>
    <style>
      .cls-1 {
        fill: #f99c1c;
        fill-rule: evenodd;
      }

      .cls-1, .cls-2 {
        stroke-width: 0px;
      }

      .cls-2 {
        fill: #131735;
      }
    </style>
  </defs>
  <path class="cls-1" d="m319.55,37.66C341.16,16.5,369.99,2.68,402,.26h20.29c15.28,1.16,29.83,4.92,43.22,10.82h-53.36v19.46h84.72c3.06,2.55,6,5.24,8.82,8.05-62.85,0-123.3-.94-186.13-.94h0Zm185.18,189.15c-21.61,21.16-50.43,34.97-82.44,37.4h-20.29c-15.28-1.16-29.83-4.92-43.21-10.82h53.36v-19.46h-84.72c-3.06-2.55-6-5.24-8.82-8.05,62.85,0,123.3.93,186.13.93h0Zm-202.22-20.4c-3.02-4.45-5.78-9.1-8.25-13.92h117.88v-16.68h125.01c-3.93,11.28-9.35,21.87-16.02,31.53-73.66,0-144.95-.93-218.62-.93h0Zm109.63-53.17v-19.46h-132.35v-1.22s0-.32,0-.32v-.39c.02-8.1.78-16.04,2.2-23.73h130.16v-16.68h125.95c2.07,6.4,3.67,13.01,4.75,19.79h-130.7v19.46h132.35v1.22s0,.32,0,.32v.39c-.02,8.1-.78,16.04-2.2,23.73h-130.16v16.68h-125.95c-2.07-6.4-3.67-13.01-4.75-19.79h130.7Zm109.63-95.18c3.02,4.45,5.78,9.1,8.25,13.92h-117.88v16.68h-125.01c3.93-11.28,9.35-21.87,16.02-31.53,73.66,0,144.95.93,218.62.93Z"/>
  <path class="cls-2" d="m259.53,130.2c-1.04,78.27-53.88,134.44-128.85,134.44S0,208.62,0,132.29,55.02,0,129.84,0c62.27,0,114.37,39.18,125.89,94.73h-43.19c-10.94-32.8-43.38-54.2-81.86-54.2-51.61,0-88.06,37.86-88.06,91.76s35.46,91.81,88.06,91.81c40.75,0,73.88-23.02,83.41-57.72h-91.01v-36.18h136.45Z"/>
  <g>
    <path class="cls-2" d="m719.4,183.66c0,46.38-35.79,80.56-82.59,80.56s-81.4-32.83-82.43-77.54h39.34c1.04,23.79,18.79,40.34,43.09,40.34s42.84-18.32,42.84-43.36-19.62-44.57-46.48-44.57h-69.67l.73-5.63,12.82-116.16h125.59v35.79h-93.65l-5.69,51.47h31.29c49.5,0,84.83,34.07,84.83,79.09Z"/>
    <path class="cls-2" d="m886.55,210.61h-23.44v49.22h-37.82v-49.22h-120.85v-8.03l82.93-185.28h40.11l-70.93,158.62h69.44l6.51-67.59h30.61v67.59h23.44v34.69Z"/>
  </g>
</svg>